<mxfile host="app.diagrams.net" modified="2023-09-27T20:00:31.106Z" agent="Mozilla/5.0 (Windows NT 10.0; Win64; x64) AppleWebKit/537.36 (KHTML, like Gecko) Chrome/117.0.0.0 Safari/537.36" etag="bqTiPCURyeAAbe6XW3Tj" version="21.8.2" type="github">
  <diagram name="Página-1" id="XD9cKPiWCkFJjbjBGVho">
    <mxGraphModel dx="1050" dy="574" grid="1" gridSize="10" guides="1" tooltips="1" connect="1" arrows="1" fold="1" page="1" pageScale="1" pageWidth="827" pageHeight="1169" math="0" shadow="0">
      <root>
        <mxCell id="0" />
        <mxCell id="1" parent="0" />
        <mxCell id="ufLfLCdkNuPUaUBysuUR-32" style="edgeStyle=orthogonalEdgeStyle;rounded=0;orthogonalLoop=1;jettySize=auto;html=1;entryX=0.5;entryY=1;entryDx=0;entryDy=0;" edge="1" parent="1" source="ufLfLCdkNuPUaUBysuUR-2" target="ufLfLCdkNuPUaUBysuUR-8">
          <mxGeometry relative="1" as="geometry">
            <Array as="points">
              <mxPoint x="540" y="250" />
              <mxPoint x="590" y="250" />
            </Array>
          </mxGeometry>
        </mxCell>
        <mxCell id="ufLfLCdkNuPUaUBysuUR-2" value="FUNCIONÁRIO" style="rounded=0;whiteSpace=wrap;html=1;" vertex="1" parent="1">
          <mxGeometry x="420" y="310" width="130" height="30" as="geometry" />
        </mxCell>
        <mxCell id="ufLfLCdkNuPUaUBysuUR-3" value="Nome" style="ellipse;whiteSpace=wrap;html=1;" vertex="1" parent="1">
          <mxGeometry x="140" y="180" width="100" height="70" as="geometry" />
        </mxCell>
        <mxCell id="ufLfLCdkNuPUaUBysuUR-4" value="&lt;u&gt;CPF&lt;/u&gt;" style="ellipse;whiteSpace=wrap;html=1;" vertex="1" parent="1">
          <mxGeometry x="250" y="180" width="100" height="70" as="geometry" />
        </mxCell>
        <mxCell id="ufLfLCdkNuPUaUBysuUR-5" value="Data de Nascimento" style="ellipse;whiteSpace=wrap;html=1;" vertex="1" parent="1">
          <mxGeometry x="360" y="180" width="100" height="70" as="geometry" />
        </mxCell>
        <mxCell id="ufLfLCdkNuPUaUBysuUR-7" value="Telefone Residencial" style="ellipse;whiteSpace=wrap;html=1;" vertex="1" parent="1">
          <mxGeometry x="430" y="100" width="100" height="70" as="geometry" />
        </mxCell>
        <mxCell id="ufLfLCdkNuPUaUBysuUR-8" value="Ramal da Empresa" style="ellipse;whiteSpace=wrap;html=1;" vertex="1" parent="1">
          <mxGeometry x="540" y="60" width="100" height="70" as="geometry" />
        </mxCell>
        <mxCell id="ufLfLCdkNuPUaUBysuUR-15" value="" style="edgeStyle=orthogonalEdgeStyle;rounded=0;orthogonalLoop=1;jettySize=auto;html=1;" edge="1" parent="1" source="ufLfLCdkNuPUaUBysuUR-13" target="ufLfLCdkNuPUaUBysuUR-14">
          <mxGeometry relative="1" as="geometry" />
        </mxCell>
        <mxCell id="ufLfLCdkNuPUaUBysuUR-13" value="&lt;div style=&quot;text-align: left;&quot;&gt;&lt;br&gt;&lt;/div&gt;&lt;div style=&quot;text-align: left;&quot;&gt;&lt;br&gt;&lt;/div&gt;" style="rhombus;whiteSpace=wrap;html=1;" vertex="1" parent="1">
          <mxGeometry x="630" y="150" width="330" height="300" as="geometry" />
        </mxCell>
        <mxCell id="ufLfLCdkNuPUaUBysuUR-66" style="edgeStyle=orthogonalEdgeStyle;rounded=0;orthogonalLoop=1;jettySize=auto;html=1;entryX=0.5;entryY=1;entryDx=0;entryDy=0;" edge="1" parent="1" source="ufLfLCdkNuPUaUBysuUR-14" target="ufLfLCdkNuPUaUBysuUR-63">
          <mxGeometry relative="1" as="geometry" />
        </mxCell>
        <mxCell id="ufLfLCdkNuPUaUBysuUR-67" style="edgeStyle=orthogonalEdgeStyle;rounded=0;orthogonalLoop=1;jettySize=auto;html=1;entryX=0.5;entryY=1;entryDx=0;entryDy=0;" edge="1" parent="1" source="ufLfLCdkNuPUaUBysuUR-14" target="ufLfLCdkNuPUaUBysuUR-65">
          <mxGeometry relative="1" as="geometry" />
        </mxCell>
        <mxCell id="ufLfLCdkNuPUaUBysuUR-68" style="edgeStyle=orthogonalEdgeStyle;rounded=0;orthogonalLoop=1;jettySize=auto;html=1;entryX=0.5;entryY=1;entryDx=0;entryDy=0;" edge="1" parent="1" source="ufLfLCdkNuPUaUBysuUR-14" target="ufLfLCdkNuPUaUBysuUR-64">
          <mxGeometry relative="1" as="geometry" />
        </mxCell>
        <mxCell id="ufLfLCdkNuPUaUBysuUR-69" style="edgeStyle=orthogonalEdgeStyle;rounded=0;orthogonalLoop=1;jettySize=auto;html=1;entryX=0.5;entryY=1;entryDx=0;entryDy=0;" edge="1" parent="1" source="ufLfLCdkNuPUaUBysuUR-14" target="ufLfLCdkNuPUaUBysuUR-62">
          <mxGeometry relative="1" as="geometry">
            <Array as="points">
              <mxPoint x="1060" y="290" />
            </Array>
          </mxGeometry>
        </mxCell>
        <mxCell id="ufLfLCdkNuPUaUBysuUR-71" style="edgeStyle=orthogonalEdgeStyle;rounded=0;orthogonalLoop=1;jettySize=auto;html=1;entryX=0.5;entryY=0;entryDx=0;entryDy=0;" edge="1" parent="1" source="ufLfLCdkNuPUaUBysuUR-14" target="ufLfLCdkNuPUaUBysuUR-58">
          <mxGeometry relative="1" as="geometry" />
        </mxCell>
        <mxCell id="ufLfLCdkNuPUaUBysuUR-72" style="edgeStyle=orthogonalEdgeStyle;rounded=0;orthogonalLoop=1;jettySize=auto;html=1;entryX=0.5;entryY=1;entryDx=0;entryDy=0;" edge="1" parent="1" source="ufLfLCdkNuPUaUBysuUR-14" target="ufLfLCdkNuPUaUBysuUR-44">
          <mxGeometry relative="1" as="geometry" />
        </mxCell>
        <mxCell id="ufLfLCdkNuPUaUBysuUR-73" style="edgeStyle=orthogonalEdgeStyle;rounded=0;orthogonalLoop=1;jettySize=auto;html=1;entryX=0.5;entryY=1;entryDx=0;entryDy=0;" edge="1" parent="1" source="ufLfLCdkNuPUaUBysuUR-14" target="ufLfLCdkNuPUaUBysuUR-45">
          <mxGeometry relative="1" as="geometry" />
        </mxCell>
        <mxCell id="ufLfLCdkNuPUaUBysuUR-14" value="Manutenção" style="whiteSpace=wrap;html=1;" vertex="1" parent="1">
          <mxGeometry x="1110" y="270" width="120" height="60" as="geometry" />
        </mxCell>
        <mxCell id="ufLfLCdkNuPUaUBysuUR-31" style="edgeStyle=orthogonalEdgeStyle;rounded=0;orthogonalLoop=1;jettySize=auto;html=1;entryX=0.244;entryY=0.989;entryDx=0;entryDy=0;entryPerimeter=0;" edge="1" parent="1" source="ufLfLCdkNuPUaUBysuUR-2" target="ufLfLCdkNuPUaUBysuUR-7">
          <mxGeometry relative="1" as="geometry">
            <Array as="points">
              <mxPoint x="504" y="280" />
              <mxPoint x="504" y="280" />
            </Array>
          </mxGeometry>
        </mxCell>
        <mxCell id="ufLfLCdkNuPUaUBysuUR-34" style="edgeStyle=orthogonalEdgeStyle;rounded=0;orthogonalLoop=1;jettySize=auto;html=1;entryX=0.212;entryY=1.011;entryDx=0;entryDy=0;entryPerimeter=0;" edge="1" parent="1" source="ufLfLCdkNuPUaUBysuUR-2" target="ufLfLCdkNuPUaUBysuUR-5">
          <mxGeometry relative="1" as="geometry">
            <Array as="points">
              <mxPoint x="381" y="310" />
            </Array>
          </mxGeometry>
        </mxCell>
        <mxCell id="ufLfLCdkNuPUaUBysuUR-35" style="edgeStyle=orthogonalEdgeStyle;rounded=0;orthogonalLoop=1;jettySize=auto;html=1;entryX=0.4;entryY=1.011;entryDx=0;entryDy=0;entryPerimeter=0;" edge="1" parent="1" source="ufLfLCdkNuPUaUBysuUR-2" target="ufLfLCdkNuPUaUBysuUR-4">
          <mxGeometry relative="1" as="geometry" />
        </mxCell>
        <mxCell id="ufLfLCdkNuPUaUBysuUR-36" style="edgeStyle=orthogonalEdgeStyle;rounded=0;orthogonalLoop=1;jettySize=auto;html=1;entryX=0.396;entryY=1.034;entryDx=0;entryDy=0;entryPerimeter=0;" edge="1" parent="1" source="ufLfLCdkNuPUaUBysuUR-2" target="ufLfLCdkNuPUaUBysuUR-3">
          <mxGeometry relative="1" as="geometry">
            <Array as="points">
              <mxPoint x="180" y="340" />
            </Array>
          </mxGeometry>
        </mxCell>
        <mxCell id="ufLfLCdkNuPUaUBysuUR-37" style="edgeStyle=orthogonalEdgeStyle;rounded=0;orthogonalLoop=1;jettySize=auto;html=1;entryX=0;entryY=0.5;entryDx=0;entryDy=0;" edge="1" parent="1" source="ufLfLCdkNuPUaUBysuUR-2" target="ufLfLCdkNuPUaUBysuUR-13">
          <mxGeometry relative="1" as="geometry">
            <Array as="points">
              <mxPoint x="485" y="380" />
            </Array>
          </mxGeometry>
        </mxCell>
        <mxCell id="ufLfLCdkNuPUaUBysuUR-38" value="&lt;u style=&quot;border-color: var(--border-color); color: rgb(0, 0, 0); font-family: Helvetica; font-size: 19px; font-style: normal; font-variant-ligatures: normal; font-variant-caps: normal; font-weight: 400; letter-spacing: normal; orphans: 2; text-align: center; text-indent: 0px; text-transform: none; widows: 2; word-spacing: 0px; -webkit-text-stroke-width: 0px; background-color: rgb(251, 251, 251);&quot;&gt;1.1&lt;/u&gt;" style="text;whiteSpace=wrap;html=1;" vertex="1" parent="1">
          <mxGeometry x="700" y="170" width="60" height="40" as="geometry" />
        </mxCell>
        <mxCell id="ufLfLCdkNuPUaUBysuUR-41" value="&lt;div style=&quot;text-align: center;&quot;&gt;&lt;span style=&quot;font-size: 19px;&quot;&gt;&lt;u&gt;N&lt;/u&gt;&lt;/span&gt;&lt;/div&gt;" style="text;whiteSpace=wrap;html=1;" vertex="1" parent="1">
          <mxGeometry x="1171" y="490" width="60" height="50" as="geometry" />
        </mxCell>
        <mxCell id="ufLfLCdkNuPUaUBysuUR-44" value="Área de Atuação" style="ellipse;whiteSpace=wrap;html=1;" vertex="1" parent="1">
          <mxGeometry x="1460" y="70" width="100" height="70" as="geometry" />
        </mxCell>
        <mxCell id="ufLfLCdkNuPUaUBysuUR-45" value="Período do Trabalho" style="ellipse;whiteSpace=wrap;html=1;" vertex="1" parent="1">
          <mxGeometry x="1570" y="70" width="100" height="70" as="geometry" />
        </mxCell>
        <mxCell id="ufLfLCdkNuPUaUBysuUR-56" value="&lt;span style=&quot;color: rgb(0, 0, 0); font-family: Helvetica; font-size: 12px; font-style: normal; font-variant-ligatures: normal; font-variant-caps: normal; font-weight: 400; letter-spacing: normal; orphans: 2; text-align: left; text-indent: 0px; text-transform: none; widows: 2; word-spacing: 0px; -webkit-text-stroke-width: 0px; background-color: rgb(251, 251, 251); text-decoration-thickness: initial; text-decoration-style: initial; text-decoration-color: initial; float: none; display: inline !important;&quot;&gt;TRABALHA&amp;nbsp; PARA&lt;/span&gt;" style="text;whiteSpace=wrap;html=1;" vertex="1" parent="1">
          <mxGeometry x="740" y="200" width="190" height="40" as="geometry" />
        </mxCell>
        <mxCell id="ufLfLCdkNuPUaUBysuUR-60" value="" style="edgeStyle=orthogonalEdgeStyle;rounded=0;orthogonalLoop=1;jettySize=auto;html=1;" edge="1" parent="1" source="ufLfLCdkNuPUaUBysuUR-58" target="ufLfLCdkNuPUaUBysuUR-59">
          <mxGeometry relative="1" as="geometry" />
        </mxCell>
        <mxCell id="ufLfLCdkNuPUaUBysuUR-58" value="CONTROLA" style="rhombus;whiteSpace=wrap;html=1;" vertex="1" parent="1">
          <mxGeometry x="1101" y="375" width="140" height="100" as="geometry" />
        </mxCell>
        <mxCell id="ufLfLCdkNuPUaUBysuUR-75" value="" style="edgeStyle=orthogonalEdgeStyle;rounded=0;orthogonalLoop=1;jettySize=auto;html=1;" edge="1" parent="1" source="ufLfLCdkNuPUaUBysuUR-59" target="ufLfLCdkNuPUaUBysuUR-74">
          <mxGeometry relative="1" as="geometry">
            <Array as="points">
              <mxPoint x="1171" y="700" />
              <mxPoint x="916" y="700" />
            </Array>
          </mxGeometry>
        </mxCell>
        <mxCell id="ufLfLCdkNuPUaUBysuUR-77" value="" style="edgeStyle=orthogonalEdgeStyle;rounded=0;orthogonalLoop=1;jettySize=auto;html=1;" edge="1" parent="1" source="ufLfLCdkNuPUaUBysuUR-59" target="ufLfLCdkNuPUaUBysuUR-76">
          <mxGeometry relative="1" as="geometry">
            <Array as="points">
              <mxPoint x="1171" y="740" />
              <mxPoint x="1171" y="740" />
            </Array>
          </mxGeometry>
        </mxCell>
        <mxCell id="ufLfLCdkNuPUaUBysuUR-79" value="" style="edgeStyle=orthogonalEdgeStyle;rounded=0;orthogonalLoop=1;jettySize=auto;html=1;" edge="1" parent="1" source="ufLfLCdkNuPUaUBysuUR-59" target="ufLfLCdkNuPUaUBysuUR-78">
          <mxGeometry relative="1" as="geometry">
            <Array as="points">
              <mxPoint x="1171" y="700" />
              <mxPoint x="1371" y="700" />
            </Array>
          </mxGeometry>
        </mxCell>
        <mxCell id="ufLfLCdkNuPUaUBysuUR-59" value="ORDEM DE SERVIÇO" style="whiteSpace=wrap;html=1;" vertex="1" parent="1">
          <mxGeometry x="1111" y="570" width="120" height="60" as="geometry" />
        </mxCell>
        <mxCell id="ufLfLCdkNuPUaUBysuUR-61" value="&lt;u&gt;Nome&lt;/u&gt;" style="ellipse;whiteSpace=wrap;html=1;" vertex="1" parent="1">
          <mxGeometry x="900" y="70" width="100" height="70" as="geometry" />
        </mxCell>
        <mxCell id="ufLfLCdkNuPUaUBysuUR-62" value="&lt;u&gt;CPF&lt;/u&gt;" style="ellipse;whiteSpace=wrap;html=1;" vertex="1" parent="1">
          <mxGeometry x="1010" y="70" width="100" height="70" as="geometry" />
        </mxCell>
        <mxCell id="ufLfLCdkNuPUaUBysuUR-63" value="Data de Nascimento" style="ellipse;whiteSpace=wrap;html=1;" vertex="1" parent="1">
          <mxGeometry x="1120" y="70" width="100" height="70" as="geometry" />
        </mxCell>
        <mxCell id="ufLfLCdkNuPUaUBysuUR-64" value="Telefone Residencial" style="ellipse;whiteSpace=wrap;html=1;" vertex="1" parent="1">
          <mxGeometry x="1231" y="70" width="100" height="70" as="geometry" />
        </mxCell>
        <mxCell id="ufLfLCdkNuPUaUBysuUR-65" value="Ramal da Empresa" style="ellipse;whiteSpace=wrap;html=1;" vertex="1" parent="1">
          <mxGeometry x="1350" y="70" width="100" height="70" as="geometry" />
        </mxCell>
        <mxCell id="ufLfLCdkNuPUaUBysuUR-70" style="edgeStyle=orthogonalEdgeStyle;rounded=0;orthogonalLoop=1;jettySize=auto;html=1;entryX=0.5;entryY=1;entryDx=0;entryDy=0;" edge="1" parent="1" source="ufLfLCdkNuPUaUBysuUR-14" target="ufLfLCdkNuPUaUBysuUR-61">
          <mxGeometry relative="1" as="geometry">
            <Array as="points">
              <mxPoint x="1170" y="250" />
              <mxPoint x="950" y="250" />
            </Array>
          </mxGeometry>
        </mxCell>
        <mxCell id="ufLfLCdkNuPUaUBysuUR-74" value="&lt;u&gt;Nº Ordem de Serviço&lt;/u&gt;" style="ellipse;whiteSpace=wrap;html=1;" vertex="1" parent="1">
          <mxGeometry x="821" y="780" width="189" height="80" as="geometry" />
        </mxCell>
        <mxCell id="ufLfLCdkNuPUaUBysuUR-76" value="Tipo de Problema" style="ellipse;whiteSpace=wrap;html=1;" vertex="1" parent="1">
          <mxGeometry x="1070" y="780" width="189" height="80" as="geometry" />
        </mxCell>
        <mxCell id="ufLfLCdkNuPUaUBysuUR-78" value="Estatos do Andamento" style="ellipse;whiteSpace=wrap;html=1;" vertex="1" parent="1">
          <mxGeometry x="1291" y="780" width="159" height="80" as="geometry" />
        </mxCell>
        <mxCell id="ufLfLCdkNuPUaUBysuUR-103" value="RESPONSÁVEL" style="ellipse;whiteSpace=wrap;html=1;" vertex="1" parent="1">
          <mxGeometry x="730" y="340" width="120" height="60" as="geometry" />
        </mxCell>
        <mxCell id="ufLfLCdkNuPUaUBysuUR-107" value="&lt;u style=&quot;border-color: var(--border-color); color: rgb(0, 0, 0); font-family: Helvetica; font-size: 19px; font-style: normal; font-variant-ligatures: normal; font-variant-caps: normal; font-weight: 400; letter-spacing: normal; orphans: 2; text-align: center; text-indent: 0px; text-transform: none; widows: 2; word-spacing: 0px; -webkit-text-stroke-width: 0px; background-color: rgb(251, 251, 251);&quot;&gt;1.1&lt;/u&gt;" style="text;whiteSpace=wrap;html=1;" vertex="1" parent="1">
          <mxGeometry x="861" y="350" width="60" height="40" as="geometry" />
        </mxCell>
        <mxCell id="ufLfLCdkNuPUaUBysuUR-109" value="&lt;u style=&quot;border-color: var(--border-color); color: rgb(0, 0, 0); font-family: Helvetica; font-size: 19px; font-style: normal; font-variant-ligatures: normal; font-variant-caps: normal; font-weight: 400; letter-spacing: normal; orphans: 2; text-align: center; text-indent: 0px; text-transform: none; widows: 2; word-spacing: 0px; -webkit-text-stroke-width: 0px; background-color: rgb(251, 251, 251);&quot;&gt;N.1&lt;/u&gt;" style="text;whiteSpace=wrap;html=1;" vertex="1" parent="1">
          <mxGeometry x="870" y="180" width="60" height="40" as="geometry" />
        </mxCell>
        <mxCell id="ufLfLCdkNuPUaUBysuUR-110" value="&lt;u style=&quot;border-color: var(--border-color); color: rgb(0, 0, 0); font-family: Helvetica; font-size: 19px; font-style: normal; font-variant-ligatures: normal; font-variant-caps: normal; font-weight: 400; letter-spacing: normal; orphans: 2; text-align: center; text-indent: 0px; text-transform: none; widows: 2; word-spacing: 0px; -webkit-text-stroke-width: 0px; background-color: rgb(251, 251, 251);&quot;&gt;N&lt;/u&gt;" style="text;whiteSpace=wrap;html=1;" vertex="1" parent="1">
          <mxGeometry x="1181" y="335" width="60" height="40" as="geometry" />
        </mxCell>
        <mxCell id="ufLfLCdkNuPUaUBysuUR-116" value="&lt;div style=&quot;text-align: center;&quot;&gt;&lt;span style=&quot;font-size: 19px;&quot;&gt;&lt;u&gt;1&lt;/u&gt;&lt;/span&gt;&lt;/div&gt;" style="text;whiteSpace=wrap;html=1;" vertex="1" parent="1">
          <mxGeometry x="610" y="455" width="60" height="50" as="geometry" />
        </mxCell>
        <mxCell id="ufLfLCdkNuPUaUBysuUR-118" value="&lt;div style=&quot;text-align: center;&quot;&gt;&lt;span style=&quot;font-size: 19px;&quot;&gt;&lt;u&gt;N&lt;/u&gt;&lt;/span&gt;&lt;/div&gt;" style="text;whiteSpace=wrap;html=1;" vertex="1" parent="1">
          <mxGeometry x="1171" y="650" width="60" height="75" as="geometry" />
        </mxCell>
      </root>
    </mxGraphModel>
  </diagram>
</mxfile>
